<svg xmlns="http://www.w3.org/2000/svg" viewBox="0 0 25 31.25" x="0px" y="0px"><title>Essential UI IconArtboard 9</title><g data-name="Layer 9"><path d="M23,12.5a.5.5,0,0,1-.5.5H2.5a.5.5,0,0,1,0-1h20A.5.5,0,0,1,23,12.5ZM2.5,8h20a.5.5,0,0,0,0-1H2.5a.5.5,0,0,0,0,1Zm20,9H2.5a.5.5,0,0,0,0,1h20a.5.5,0,0,0,0-1Z"/></g><text x="0" y="40" fill="#000000" font-size="5px" font-weight="bold" font-family="'Helvetica Neue', Helvetica, Arial-Unicode, Arial, Sans-serif">Created by Caesar Rizky Kurniawan</text><text x="0" y="45" fill="#000000" font-size="5px" font-weight="bold" font-family="'Helvetica Neue', Helvetica, Arial-Unicode, Arial, Sans-serif">from the Noun Project</text></svg>